<?xml version="1.0" encoding="UTF-8"?>
<svg xmlns="http://www.w3.org/2000/svg" width="55" height="40">
    <rect width="100%" height="100%" fill="#f00"/>
    <rect width="70%" height="100%" fill="#fff" x="15%"/>
    <path fill="#ff0000"
          d="m 20.999228,.6875 -1.11312,6.362529 c -.387086,.691501 -1.080627,.627363 -1.774169,.241138 l -2.469699,-1.278858 1.840705,9.772711 c .387086,1.785419 -.854859,1.785419 -1.467765,1.013435 l -.4310105,-4.825099 -.699738,2.4503 c -.080692,.321777 -.435481,.659744 -.967748,.579261 l -5.450177,-1.145912 1.431524,5.204475 c .306451,1.158054 .54549,1.637528 -.309375,1.942959 l -1.942619,.913025 9.382127,7.620838 c .37135,.288151 .558971,.8067 .426768,1.27621 l -.821136,2.694707 c 3.230405,-.372371 6.124898,-.932594 9.356939,-1.277619 .285323,-.030459 .762988,.440408 .761029,.771058 l -.428024,9.872342 1.570639,0 -.247237,-9.85117 c -.00197,-.33065 .431372,-.822689 .716695,-.79223 3.232041,.345026 6.126538,.905248 9.356942,1.277619 l -.821134,-2.694707 c -.132203,-.46951 .055417,-.988059 .426767,-1.27621 l 9.382125,-7.620838 -1.942617,-.913025 c -.854867,-.305431 -.615828,-.784905 -.309377,-1.942959 l 1.431527,-5.204475 -5.45018,1.145912 c -.532267,.080483 -.887056,-.257484 -.96775,-.579261 l -.699737,-2.4503 -4.310103,4.825099 c -.612908,.771984 -1.854854,.771984 -1.467768,-1.013435 l 1.840702,-9.772711 -2.469694,1.278858 c -.693559,.386225 -1.387083,.450363 -1.77417,-.241138"/>
</svg>