<?xml version="1.0" encoding="utf-8"?>
<svg version="1.1" height="50%" id="Layer_1" xmlns:svg="http://www.w3.org/2000/svg"
	 xmlns="http://www.w3.org/2000/svg" xmlns:xlink="http://www.w3.org/1999/xlink" x="0" y="0"
	 viewBox="0 0 900 450" enable-background="new 0 0 900 450" xml:space="preserve">
<rect id="red" fill="#EE2439" width="100%" height="100%"/>
<rect id="bg" fill="#FFFFFF" width="10%" height="100%"/>
<rect id="grn" x="10%" y="66%" fill="#00B156" width="90%" height="40%"/>
<path id="orn" fill="#EE2439" d="M0.006,442.549h4.386v-3.723V435.1H0.006v3.727V442.549z
	 M0.006,420.572h4.386v3.725v3.727h4.386v3.353v3.726h4.386v3.727v3.723h4.386v3.729V450h3.947h4.386h4.386v-3.724v-3.729h4.386
	v-3.723v-3.727h4.386v-3.726v-3.354h4.386v-3.725v-3.726h4.386v-3.727v-3.726h-4.386v-3.726v-3.726H39.04v-3.724v-3.727h-4.386
	v-3.353v-3.728h-4.386v-3.724v-3.727h-4.386v-3.726v-3.725h-4.386v3.725v3.726h-3.947v3.727v3.724h-4.386v3.728v3.353H8.778v3.727
	v3.724H4.392v3.726v3.726H0.006v3.726V420.572L0.006,420.572z M0.006,398.222h4.386v-3.353v-3.729H0.006v3.729V398.222z
	 M0.006,368.792h4.386v3.726v3.726h4.386v3.726v3.727h4.386v-3.727v-3.726h4.386v-3.726v-3.726h3.947v-3.724v-3.729H17.55v-3.723
	v-3.354h-4.386v-3.724v-3.727H8.778v3.727v3.724H4.392v3.354v3.723H0.006v3.729V368.792z M0.006,339.363h4.386v-3.727v-3.726H0.006
	v3.726V339.363z M0.006,317.384h4.386v3.727v3.353h4.386v3.726v3.726h4.386v3.726v3.727h4.386v3.725v3.727h3.947v3.726v3.725h4.386
	v-3.725v-3.726h4.386v-3.727v-3.725h4.386v-3.727v-3.726h4.386v-3.726v-3.726h4.386v-3.353v-3.727h4.386v-3.726v-3.727h4.386v3.727
	v3.726h4.386v3.727v3.353h4.387v3.726v3.726h4.386v3.726v3.727h4.386v3.725v3.727h3.947v3.726v3.725h4.386v-3.725v-3.726h4.386
	v-3.727v-3.725h4.386v-3.727v-3.726h4.386v-3.726v-3.726h4.386v-3.353v-3.727H100v-3.726v-3.727v-3.723v-3.726h-4.387v-3.727v-3.726
	h-4.386v-3.725v-3.727h-4.386v-3.727v-3.725h-4.386v3.725v3.727h-4.386v3.727v3.725h-4.386v3.726v3.727h4.386h4.386v3.726v3.723
	h-4.386h-4.386h-3.947v-3.723v-3.726H65.35v-3.727v-3.726h-4.386v-3.725v-3.727h4.386v-3.727v-3.725h4.386v-3.354v-3.726h3.947
	v-3.724V265.6h4.386v-3.725v-3.727h4.386v-3.726v-3.726h4.386v3.726v3.726h4.386v3.727v3.725h4.386v3.727v3.724H100v-3.724V265.6
	v-3.725v-3.727v-3.726v-3.726h-4.387v-3.354v-3.725h-4.386V239.9v-3.726h-4.386v-3.726v-3.727h-4.386V225v-3.725h4.386v-3.726
	v-3.726h4.386v-3.725v-3.726h4.386v-3.725v-3.353H100v-3.726v-3.725v-3.726v-3.725v-3.726v-3.725h-4.387v3.725v3.726h-4.386v3.725
	v3.726h-4.386v3.725v3.726h-4.386v-3.726v-3.725h-4.386v-3.726v-3.725h-4.386v-3.726v-3.725h-3.947v-3.726v-3.353H65.35v-3.725
	v-3.726h-4.386v-3.725v-3.726h4.386v-3.725v-3.726h4.386v-3.726v-3.725h3.947h4.386h4.386v3.725v3.726h-4.386h-4.386v3.726v3.725
	h4.386v3.726v3.725h4.386v3.726v3.725h4.386v-3.725v-3.726h4.386v-3.725v-3.726h4.386v-3.725v-3.726H100v-3.726v-3.725v-3.726
	v-3.725h-4.387v-3.726v-3.353h-4.386v-3.725v-3.726h-4.386v-3.725v-3.726h-4.386v-3.725v-3.726h-4.386V99.45v-3.726h-4.386v3.726
	v3.725h-3.947v3.726v3.725H65.35v3.726v3.725h-4.386v3.726v3.725h-4.387v3.353v3.726h-4.386v3.725v3.726h-4.386v-3.726v-3.725H43.42
	v-3.726v-3.353h-4.386v-3.725v-3.726h-4.386v-3.725v-3.726h-4.386v-3.725v-3.726h-4.386V99.45v-3.726H21.49v3.726v3.725h-3.947
	v3.726v3.725h-4.386v3.726v3.725H8.772v3.726v3.725H4.386v3.353v3.726H0v3.725v3.726v3.725v3.726h4.386v3.726v3.725h4.386v3.726
	v3.725h4.386v3.726v3.725h4.386v-3.725v-3.726h3.947v-3.725v-3.726h4.386v-3.725v-3.726h-4.386h-3.947v-3.726v-3.725h3.947h4.386
	h4.386v3.725v3.726h4.386v3.726v3.725h4.386v3.726v3.725h-4.386v3.726v3.725h-4.386v3.353v3.726h-4.386v3.725v3.726h-4.386v3.725
	v3.726h-3.947v3.539v0.186v3.726h-4.386v-3.726v-0.186v-3.539H8.772v-3.726v-3.725H4.386v-3.726v-3.725H0v3.725v3.726v3.725v3.726
	v3.725v3.726h4.386v3.353v3.725h4.386v3.726v3.725h4.386v3.726v3.726h4.386V225v3.725h-4.386v3.726v3.726H8.772v3.725v3.728H4.386
	v3.726v3.353H0v3.726v3.726v3.727v3.726v3.726v3.724h4.386v-3.724v-3.726h4.386v-3.726v-3.727h4.386v-3.538v-0.188v-3.726h4.386
	v3.726v0.188v3.538h3.947v3.727v3.726h4.386v3.726v3.724h4.386v3.726v3.354h4.386v3.725v3.726h4.386v3.726v3.726h-4.386v3.726v3.727
	h-4.386v3.726v3.724h-4.386h-4.386h-3.947v-3.724v-3.726h3.947h4.386v-3.727v-3.726h-4.386v-3.726v-3.726h-3.947v-3.726v-3.725
	h-4.386v3.725v3.726H8.772v3.726v3.726H4.386v3.726v3.727H0v3.726v3.724v3.726v3.727h0.006V317.384z M0.006,287.583h4.386v-3.726
	v-3.726H0.006v3.726V287.583z M0.006,169.868h4.386v-3.726v-3.726H0.006v3.726V169.868z M0.006,118.088h4.386v-3.726v-3.725H0.006
	v3.725V118.088z M0.006,88.659h4.386v3.726v3.353h4.386v3.725v3.726h4.386v-3.726v-3.725h4.386v-3.353v-3.726h3.947v-3.725v-3.726
	H17.55v-3.725v-3.726h-4.386v-3.725v-3.726H8.778v3.726v3.725H4.392v3.726v3.725H0.006v3.726V88.659L0.006,88.659z M0.006,58.858
	h4.386v-3.725V51.78H0.006v3.353V58.858L0.006,58.858z M0.006,36.879h4.386v3.725v3.726h4.386v3.725v3.726h4.386v3.353v3.725h4.386
	v3.726v3.725h3.947v3.726v3.725h4.386v-3.725V66.31h4.386v-3.725v-3.726h4.386v-3.725V51.78h4.386v-3.726V44.33h4.386v-3.726v-3.725
	h4.386v-3.726v-3.726h-4.386v-3.725v-3.724H39.04v-3.353V14.9h-4.386v-3.726V7.451h-4.386V3.726V0h-4.386h-4.386h-3.947v3.726v3.725
	h-4.386v3.726v3.725H8.778v3.726v3.353H4.392v3.725v3.726H0.006v3.725V36.879L0.006,36.879z M0.006,14.901h4.386v-3.725V7.451H0.006
	v3.726V14.901z M8.776,368.792v-3.724v-3.729h4.386v3.729v3.724H8.776z M8.776,88.659v-3.725v-3.726h4.386v3.726v3.725H8.776z
	 M13.163,420.572v-3.727v-3.726h4.386v-3.727v-3.725h3.947v-3.724v-3.727h4.386v3.727v3.724h4.386v3.725v3.727h4.386v3.726v3.727
	h-4.386v3.725v3.727h-4.386v3.353v3.726h-4.386v-3.726v-3.353h-3.947v-3.727v-3.725H13.163z M13.163,36.879v-3.726v-3.726h4.386
	v-3.725v-3.724h3.947v-3.353V14.9h4.386v3.726v3.353h4.386v3.725v3.726h4.386v3.725v3.726h-4.386v3.725v3.726h-4.386v3.725v3.726
	h-4.386v-3.726v-3.725h-3.947v-3.726V36.88L13.163,36.879L13.163,36.879z M21.495,420.572h4.386v-3.727v-3.726h-4.386v3.726V420.572
	z M21.495,36.879h4.386v-3.726v-3.726h-4.386v3.726V36.879z M25.881,368.792h4.386v3.726v3.726h4.386v3.726v3.727h4.386v-3.727
	v-3.726h4.386v-3.726v-3.726h4.386v-3.724v-3.729h-4.386v-3.723v-3.354h-4.386v-3.724v-3.727h-4.386v3.727v3.724h-4.386v3.354v3.723
	h-4.386v3.729V368.792z M25.881,243.627V239.9v-3.726v-3.726v-3.727V225v-3.725v-3.726v-3.726v-3.725v-3.726h4.386v-3.725v-3.353
	h4.386v-3.726v-3.725h4.386v-3.726v-3.725h4.386v-3.726v-3.725h4.386v-3.726v-3.353h4.386v3.353v3.726h4.386v3.725v3.726h4.387
	v3.725v3.726h4.386v3.725v3.726h4.386v3.353v3.725h3.947v3.726v3.725v3.726v3.726V225v3.725v3.726v3.726v3.725v3.728h-3.947v3.726
	v3.353h-4.386v3.726v3.726H60.97v3.727v3.726h-4.387v3.726v3.724h-4.386v3.726v3.354h-4.386v-3.354v-3.726h-4.386v-3.724v-3.726
	h-4.386v-3.726v-3.727h-4.386v-3.726v-3.726h-4.386v-3.353v-3.726L25.881,243.627L25.881,243.627z M25.881,88.659h4.386v3.726v3.353
	h4.386v3.725v3.726h4.386v-3.726v-3.725h4.386v-3.353v-3.726h4.386v-3.725v-3.726h-4.386v-3.725v-3.726h-4.386v-3.725v-3.726h-4.386
	v3.726v3.725h-4.386v3.726v3.725h-4.386v3.726V88.659z M31.144,228.725h4.386V225v-3.725h-4.386V225V228.725z M34.653,368.792
	v-3.724v-3.729h4.386v3.729v3.724H34.653z M34.653,88.659v-3.725v-3.726h4.386v3.726v3.725H34.653z M39.039,250.704h4.386v-3.353
	v-3.726h4.386V239.9v-3.726h4.386v3.726v3.727h4.386v3.725v3.354h4.387v-3.354v-3.725V239.9v-3.726h-4.387v-3.726v-3.727h-4.386V225
	v-3.725h4.386v-3.726v-3.726h4.387v-3.725v-3.726v-3.725v-3.353h-4.387v3.353v3.725h-4.386v3.726v3.725h-4.386v-3.725v-3.726h-4.386
	v-3.725v-3.353h-4.386v3.353v3.725v3.726v3.725h4.386v3.726v3.726h4.386V225v3.725h-4.386v3.726v3.726h-4.386v3.725v3.728v3.726
	V250.704z M47.811,450h4.386v-3.724v-3.729v-3.723v-3.727h-4.386v3.727v3.723v3.729V450z M47.811,398.222h4.386v-3.353v-3.729
	v-3.723v-3.726h-4.386v3.726v3.723v3.729V398.222z M47.811,346.813h4.386v-3.726v-3.725v-3.727v-3.726h-4.386v3.726v3.727v3.725
	V346.813z M47.811,265.605h4.386v-3.726v-3.728h-4.386v3.728V265.605z M47.811,191.846h4.386v-3.726v-3.725h-4.386v3.725V191.846z
	 M47.811,118.088h4.386v-3.726v-3.725v-3.726v-3.725h-4.386v3.725v3.726v3.725V118.088z M47.811,66.308h4.386v-3.725v-3.726v-3.725
	v-3.353h-4.386v3.353v3.725v3.726V66.308z M47.811,14.901h4.386v-3.725V7.451V3.726V0h-4.386v3.726v3.725v3.726V14.901z
	 M52.195,420.572h4.386v3.725v3.727h4.387v3.353v3.726h4.386v3.727v3.723h4.386v3.729V450h3.947h4.386h4.386v-3.724v-3.729h4.386
	v-3.723v-3.727h4.386v-3.726v-3.354h4.386v-3.725v-3.726H100v-3.727v-3.726h-4.387v-3.726v-3.726h-4.386v-3.724v-3.727h-4.386
	v-3.353v-3.728h-4.386v-3.724v-3.727h-4.386v-3.726v-3.725h-4.386v3.725v3.726h-3.947v3.727v3.724H65.35v3.728v3.353h-4.386v3.727
	v3.724h-4.387v3.726v3.726h-4.386v3.726v3.727h0.004V420.572z M52.195,368.792h4.386v3.726v3.726h4.387v3.726v3.727h4.386v-3.727
	v-3.726h4.386v-3.726v-3.726h3.947v-3.724v-3.729H69.74v-3.723v-3.354h-4.386v-3.724v-3.727h-4.386v3.727v3.724h-4.387v3.354v3.723
	h-4.386v3.729V368.792z M52.195,88.659h4.386v3.726v3.353h4.387v3.725v3.726h4.386v-3.726v-3.725h4.386v-3.353v-3.726h3.947v-3.725
	v-3.726H69.74v-3.725v-3.726h-4.386v-3.725v-3.726h-4.386v3.726v3.725h-4.387v3.726v3.725h-4.386v3.726V88.659z M52.195,36.879
	h4.386v3.725v3.726h4.387v3.725v3.726h4.386v3.353v3.725h4.386v3.726v3.725h3.947v3.726v3.725h4.386v-3.725V66.31h4.386v-3.725
	v-3.726h4.386v-3.725V51.78h4.386v-3.726V44.33h4.386v-3.726v-3.725H100v-3.726v-3.726h-4.387v-3.725v-3.724h-4.386v-3.353V14.9
	h-4.386v-3.726V7.451h-4.386V3.726V0h-4.386h-4.386h-3.947v3.726v3.725H65.35v3.726v3.725h-4.386v3.726v3.353h-4.387v3.725v3.726
	h-4.386v3.725v3.724h0.004V36.879z M60.967,368.792v-3.724v-3.729h4.386v3.729v3.724H60.967z M60.967,88.659v-3.725v-3.726h4.386
	v3.726v3.725H60.967z M64.475,228.725h4.386V225v-3.725h-4.386V225V228.725z M65.353,420.572v-3.727v-3.726h4.386v-3.727v-3.725
	h3.947v-3.724v-3.727h4.386v3.727v3.724h4.386v3.725v3.727h4.386v3.726v3.727h-4.386v3.725v3.727h-4.386v3.353v3.726h-4.386v-3.726
	v-3.353h-3.947v-3.727v-3.725H65.353z M65.353,36.879v-3.726v-3.726h4.386v-3.725v-3.724h3.947v-3.353V14.9h4.386v3.726v3.353h4.386
	v3.725v3.726h4.386v3.725v3.726h-4.386v3.725v3.726h-4.386v3.725v3.726h-4.386v-3.726v-3.725h-3.947v-3.726V36.88L65.353,36.879
	L65.353,36.879z M73.685,420.572h4.386v-3.727v-3.726h-4.386v3.726V420.572z M73.685,36.879h4.386v-3.726v-3.726h-4.386v3.726
	V36.879z M78.07,368.792h4.386v3.726v3.726h4.386v3.726v3.727h0.219h4.167v-3.727v-3.726h4.386v-3.726v-3.726H100v-3.724v-3.729
	h-4.387v-3.723v-3.354h-4.386v-3.724v-3.727h-4.386v3.727v3.724h-4.386v3.354v3.723h-4.386v3.729L78.07,368.792L78.07,368.792z
	 M78.07,88.659h4.386v3.726v3.353h4.386v3.725v3.726h4.386v-3.726v-3.725h4.386v-3.353v-3.726H100v-3.725v-3.726h-4.387v-3.725
	v-3.726h-4.386v-3.725v-3.726H87.06h-0.219v3.726v3.725h-4.386v3.726v3.725h-4.386v3.726L78.07,88.659L78.07,88.659z
	 M86.842,368.792v-3.724v-3.729h4.386v3.729v3.724H86.842z M86.842,88.659v-3.725v-3.726h4.386v3.726v3.725H86.842z M95.613,442.549
	H100v-3.723V435.1h-4.387v3.727V442.549z M95.613,398.222H100v-3.353v-3.729h-4.387v3.729V398.222z M95.613,339.363H100v-3.727
	v-3.726h-4.387v3.726V339.363z M95.613,287.583H100v-3.726v-3.726h-4.387v3.726V287.583z M95.613,169.868H100v-3.725v-3.726h-4.387
	v3.726V169.868z M95.613,118.088H100v-3.726v-3.725h-4.387v3.725V118.088z M95.613,58.858H100v-3.725V51.78h-4.387v3.353V58.858z
	 M95.613,14.901H100v-3.725V7.451h-4.387v3.726V14.901L95.613,14.901z"/>
</svg>
